<svg xmlns="http://www.w3.org/2000/svg"
     width="2.77778in" height="2.77778in"
     viewBox="0 0 200 200">
  <path id="Selection"
        fill="none" stroke="black" stroke-width="1"
        d="M 200.00,0.00
           C 200.00,0.00 200.00,200.00 200.00,200.00
             200.00,200.00 0.00,200.00 0.00,200.00
             0.00,200.00 0.00,0.00 0.00,0.00
             0.00,0.00 200.00,0.00 200.00,0.00 Z
           M 142.00,38.00
           C 142.00,38.00 126.00,41.94 126.00,41.94
             126.00,41.94 117.00,44.00 117.00,44.00
             122.45,44.34 126.70,46.71 130.00,51.00
             130.00,51.00 139.00,54.00 139.00,54.00
             139.00,54.00 135.84,60.87 135.84,60.87
             135.84,60.87 132.00,68.00 132.00,68.00
             132.00,68.00 146.00,61.00 146.00,61.00
             146.00,61.00 147.00,55.00 147.00,55.00
             158.86,61.86 153.80,60.08 166.00,61.00
             166.00,61.00 165.00,57.00 165.00,57.00
             162.22,56.68 161.61,56.39 159.93,53.95
             155.59,47.63 162.95,40.60 167.00,36.00
             154.41,34.69 149.63,43.79 144.27,32.00
             144.27,32.00 142.00,25.00 142.00,25.00
             140.34,28.66 141.05,34.18 142.00,38.00 Z
           M 42.00,46.00
           C 42.00,46.00 23.00,46.68 23.00,46.68
             23.00,46.68 13.00,48.00 13.00,48.00
             18.33,48.91 18.63,50.93 21.93,55.00
             24.33,57.95 28.67,62.92 29.64,66.58
             31.36,73.04 22.29,88.10 21.00,95.00
             29.37,92.33 38.62,83.09 42.00,75.00
             49.17,80.55 62.37,88.73 71.58,89.47
             71.58,89.47 83.00,90.00 83.00,90.00
             78.99,84.40 66.00,73.28 66.89,66.11
             67.22,63.44 70.93,59.30 72.57,57.00
             76.28,51.83 81.40,43.48 81.00,37.00
             81.00,37.00 56.00,46.00 56.00,46.00
             56.00,46.00 50.59,39.91 50.59,39.91
             50.59,39.91 42.00,29.00 42.00,29.00
             40.74,32.67 41.07,42.16 42.00,46.00 Z
           M 131.00,68.00
           C 131.00,68.00 132.00,69.00 132.00,69.00
             132.00,69.00 132.00,68.00 132.00,68.00
             132.00,68.00 131.00,68.00 131.00,68.00 Z
           M 132.00,69.00
           C 132.00,69.00 133.00,70.00 133.00,70.00
             133.00,70.00 133.00,69.00 133.00,69.00
             133.00,69.00 132.00,69.00 132.00,69.00 Z
           M 13.00,99.00
           C 13.00,99.00 19.00,99.00 19.00,99.00
             19.00,99.00 21.00,95.00 21.00,95.00
             16.90,95.78 16.01,96.04 13.00,99.00 Z
           M 144.00,126.00
           C 136.87,123.10 131.70,121.40 127.00,115.00
             127.00,115.00 120.00,118.00 120.00,118.00
             122.26,118.18 123.86,118.14 125.80,119.60
             131.53,123.89 131.98,137.64 126.61,142.35
             122.42,146.03 117.68,144.09 114.00,149.00
             110.03,148.60 108.26,148.56 105.00,151.00
             105.00,151.00 126.00,155.79 126.00,155.79
             129.24,156.49 134.01,157.18 136.17,159.94
             137.62,161.80 137.25,164.72 137.53,167.00
             138.00,170.86 139.16,174.59 141.00,178.00
             143.47,171.72 144.49,164.96 144.91,158.30
             145.04,156.27 145.41,154.77 147.54,153.86
             147.54,153.86 158.09,153.86 158.09,153.86
             164.61,152.56 163.25,149.43 173.00,150.00
             173.00,150.00 171.00,145.00 171.00,145.00
             166.51,144.40 163.03,139.80 161.00,136.00
             154.48,134.80 154.13,127.04 155.03,121.58
             155.03,121.58 156.90,115.00 156.90,115.00
             156.90,115.00 156.90,109.00 156.90,109.00
             151.33,111.75 145.97,120.07 144.00,126.00 Z
           M 125.00,114.00
           C 125.00,114.00 126.00,115.00 126.00,115.00
             126.00,115.00 126.00,114.00 126.00,114.00
             126.00,114.00 125.00,114.00 125.00,114.00 Z
           M 24.00,138.00
           C 24.00,138.00 25.00,139.00 25.00,139.00
             25.00,139.00 25.00,138.00 25.00,138.00
             25.00,138.00 24.00,138.00 24.00,138.00 Z
           M 25.00,145.00
           C 27.30,142.84 26.64,141.95 26.00,139.00
             26.00,139.00 25.00,145.00 25.00,145.00 Z
           M 59.00,143.00
           C 59.00,143.00 60.00,144.00 60.00,144.00
             60.00,144.00 60.00,143.00 60.00,143.00
             60.00,143.00 59.00,143.00 59.00,143.00 Z
           M 50.00,147.00
           C 46.30,150.74 40.37,154.67 35.11,151.63
             30.88,149.18 32.45,146.85 27.00,145.00
             27.00,145.00 28.00,164.00 28.00,164.00
             28.00,164.00 15.00,173.00 15.00,173.00
             15.00,173.00 32.00,179.00 32.00,179.00
             30.81,184.15 32.68,188.45 35.00,193.00
             35.00,193.00 40.00,188.00 40.00,188.00
             40.00,188.00 39.00,175.00 39.00,175.00
             39.00,175.00 56.96,177.09 56.96,177.09
             60.23,177.47 62.60,178.66 65.00,176.00
             65.00,176.00 59.15,172.69 59.15,172.69
             59.15,172.69 52.28,163.42 52.28,163.42
             52.28,163.42 56.44,155.00 56.44,155.00
             56.44,155.00 60.00,145.00 60.00,145.00
             60.00,145.00 59.00,144.00 59.00,144.00
             59.00,144.00 50.00,147.00 50.00,147.00 Z
           M 14.00,173.00
           C 14.00,173.00 15.00,174.00 15.00,174.00
             15.00,174.00 15.00,173.00 15.00,173.00
             15.00,173.00 14.00,173.00 14.00,173.00 Z
           M 33.00,192.00
           C 33.00,192.00 34.00,193.00 34.00,193.00
             34.00,193.00 34.00,192.00 34.00,192.00
             34.00,192.00 33.00,192.00 33.00,192.00 Z" />
</svg>
